<?xml version="1.0" encoding="UTF-8" standalone="no"?>
<!DOCTYPE svg PUBLIC "-//W3C//DTD SVG 1.1//EN"
 "http://www.w3.org/Graphics/SVG/1.1/DTD/svg11.dtd">
<!-- Generated by graphviz version 2.28.0 (20130109.1152)
 -->
<!-- Title: G Pages: 1 -->
<svg width="598pt" height="310pt"
 viewBox="0.00 0.00 598.40 310.40" xmlns="http://www.w3.org/2000/svg" xmlns:xlink="http://www.w3.org/1999/xlink">
<g id="graph1" class="graph" transform="scale(1 1) rotate(0) translate(4 306.4)">
<title>G</title>
<polygon fill="white" stroke="white" points="-4,5 -4,-306.4 595.4,-306.4 595.4,5 -4,5"/>
<g id="graph2" class="cluster"><title>cluster_1</title>
<polygon fill="lightgrey" stroke="black" points="0,-0 0,-302.4 590.4,-302.4 590.4,-0 0,-0"/>
<text text-anchor="middle" x="295.2" y="-287.2" font-family="Times,serif" font-size="14.00">nest 1</text>
</g>
<!-- a0a0 -->
<g id="node2" class="node"><title>a0a0</title>
<ellipse fill="black" stroke="black" cx="7.2" cy="-7.2" rx="7.2" ry="7.2"/>
</g>
<!-- a0a1 -->
<g id="node3" class="node"><title>a0a1</title>
<ellipse fill="green" stroke="green" cx="7.2" cy="-79.2" rx="7.2" ry="7.2"/>
</g>
<!-- b1b1 -->
<g id="node11" class="node"><title>b1b1</title>
<ellipse fill="pink" stroke="pink" cx="439.2" cy="-151.2" rx="7.2" ry="7.2"/>
</g>
<!-- a0a1&#45;&gt;b1b1 -->
<g id="edge3" class="edge"><title>a0a1&#45;&gt;b1b1</title>
<path fill="none" stroke="yellow" d="M14.3377,-80.3896C63.176,-88.5293 348.293,-136.049 421.877,-148.313"/>
<polygon fill="yellow" stroke="yellow" points="421.363,-151.775 431.802,-149.967 422.513,-144.871 421.363,-151.775"/>
</g>
<!-- b2b1 -->
<g id="node18" class="node"><title>b2b1</title>
<ellipse fill="pink" stroke="pink" cx="511.2" cy="-151.2" rx="7.2" ry="7.2"/>
</g>
<!-- a0a1&#45;&gt;b2b1 -->
<g id="edge9" class="edge"><title>a0a1&#45;&gt;b2b1</title>
<path fill="none" stroke="yellow" d="M14.7157,-80.2737C69.921,-88.1601 412.842,-137.149 493.996,-148.742"/>
<polygon fill="yellow" stroke="yellow" points="493.611,-152.223 504.005,-150.172 494.601,-145.293 493.611,-152.223"/>
</g>
<!-- b3b1 -->
<g id="node25" class="node"><title>b3b1</title>
<ellipse fill="pink" stroke="pink" cx="583.2" cy="-151.2" rx="7.2" ry="7.2"/>
</g>
<!-- a0a1&#45;&gt;b3b1 -->
<g id="edge15" class="edge"><title>a0a1&#45;&gt;b3b1</title>
<path fill="none" stroke="yellow" d="M14.4828,-80.1103C73.6835,-87.5104 476.087,-137.811 565.585,-148.998"/>
<polygon fill="yellow" stroke="yellow" points="565.331,-152.494 575.688,-150.261 566.2,-145.548 565.331,-152.494"/>
</g>
<!-- a0a2 -->
<g id="node4" class="node"><title>a0a2</title>
<ellipse fill="green" stroke="green" cx="7.2" cy="-151.2" rx="7.2" ry="7.2"/>
</g>
<!-- b1b2 -->
<g id="node13" class="node"><title>b1b2</title>
<ellipse fill="pink" stroke="pink" cx="439.2" cy="-223.2" rx="7.2" ry="7.2"/>
</g>
<!-- a0a2&#45;&gt;b1b2 -->
<g id="edge5" class="edge"><title>a0a2&#45;&gt;b1b2</title>
<path fill="none" stroke="yellow" d="M14.3377,-152.39C63.176,-160.529 348.293,-208.049 421.877,-220.313"/>
<polygon fill="yellow" stroke="yellow" points="421.363,-223.775 431.802,-221.967 422.513,-216.871 421.363,-223.775"/>
</g>
<!-- b2b2 -->
<g id="node20" class="node"><title>b2b2</title>
<ellipse fill="pink" stroke="pink" cx="511.2" cy="-223.2" rx="7.2" ry="7.2"/>
</g>
<!-- a0a2&#45;&gt;b2b2 -->
<g id="edge11" class="edge"><title>a0a2&#45;&gt;b2b2</title>
<path fill="none" stroke="yellow" d="M14.7157,-152.274C69.921,-160.16 412.842,-209.149 493.996,-220.742"/>
<polygon fill="yellow" stroke="yellow" points="493.611,-224.223 504.005,-222.172 494.601,-217.293 493.611,-224.223"/>
</g>
<!-- b3b2 -->
<g id="node27" class="node"><title>b3b2</title>
<ellipse fill="pink" stroke="pink" cx="583.2" cy="-223.2" rx="7.2" ry="7.2"/>
</g>
<!-- a0a2&#45;&gt;b3b2 -->
<g id="edge17" class="edge"><title>a0a2&#45;&gt;b3b2</title>
<path fill="none" stroke="yellow" d="M14.4828,-152.11C73.6835,-159.51 476.087,-209.811 565.585,-220.998"/>
<polygon fill="yellow" stroke="yellow" points="565.331,-224.494 575.688,-222.261 566.2,-217.548 565.331,-224.494"/>
</g>
<!-- a0a3 -->
<g id="node5" class="node"><title>a0a3</title>
<ellipse fill="green" stroke="green" cx="7.2" cy="-223.2" rx="7.2" ry="7.2"/>
</g>
<!-- b1b3 -->
<g id="node15" class="node"><title>b1b3</title>
<ellipse fill="pink" stroke="pink" cx="439.2" cy="-295.2" rx="7.2" ry="7.2"/>
</g>
<!-- a0a3&#45;&gt;b1b3 -->
<g id="edge7" class="edge"><title>a0a3&#45;&gt;b1b3</title>
<path fill="none" stroke="yellow" d="M14.3377,-224.39C63.176,-232.529 348.293,-280.049 421.877,-292.313"/>
<polygon fill="yellow" stroke="yellow" points="421.363,-295.775 431.802,-293.967 422.513,-288.871 421.363,-295.775"/>
</g>
<!-- b2b3 -->
<g id="node22" class="node"><title>b2b3</title>
<ellipse fill="pink" stroke="pink" cx="511.2" cy="-295.2" rx="7.2" ry="7.2"/>
</g>
<!-- a0a3&#45;&gt;b2b3 -->
<g id="edge13" class="edge"><title>a0a3&#45;&gt;b2b3</title>
<path fill="none" stroke="yellow" d="M14.7157,-224.274C69.921,-232.16 412.842,-281.149 493.996,-292.742"/>
<polygon fill="yellow" stroke="yellow" points="493.611,-296.223 504.005,-294.172 494.601,-289.293 493.611,-296.223"/>
</g>
<!-- b3b3 -->
<g id="node29" class="node"><title>b3b3</title>
<ellipse fill="pink" stroke="pink" cx="583.2" cy="-295.2" rx="7.2" ry="7.2"/>
</g>
<!-- a0a3&#45;&gt;b3b3 -->
<g id="edge19" class="edge"><title>a0a3&#45;&gt;b3b3</title>
<path fill="none" stroke="yellow" d="M14.4828,-224.11C73.6835,-231.51 476.087,-281.811 565.585,-292.998"/>
<polygon fill="yellow" stroke="yellow" points="565.331,-296.494 575.688,-294.261 566.2,-289.548 565.331,-296.494"/>
</g>
<!-- b0b0 -->
<g id="node6" class="node"><title>b0b0</title>
<ellipse fill="black" stroke="black" cx="367.2" cy="-79.2" rx="7.2" ry="7.2"/>
</g>
<!-- b0b1 -->
<g id="node7" class="node"><title>b0b1</title>
<ellipse fill="black" stroke="black" cx="367.2" cy="-151.2" rx="7.2" ry="7.2"/>
</g>
<!-- b0b2 -->
<g id="node8" class="node"><title>b0b2</title>
<ellipse fill="black" stroke="black" cx="367.2" cy="-223.2" rx="7.2" ry="7.2"/>
</g>
<!-- b0b3 -->
<g id="node9" class="node"><title>b0b3</title>
<ellipse fill="black" stroke="black" cx="367.2" cy="-295.2" rx="7.2" ry="7.2"/>
</g>
<!-- b1b0 -->
<g id="node10" class="node"><title>b1b0</title>
<ellipse fill="black" stroke="black" cx="439.2" cy="-79.2" rx="7.2" ry="7.2"/>
</g>
<!-- a1a2 -->
<g id="node33" class="node"><title>a1a2</title>
<ellipse fill="green" stroke="green" cx="79.2" cy="-151.2" rx="7.2" ry="7.2"/>
</g>
<!-- b1b2&#45;&gt;a1a2 -->
<g id="edge21" class="edge"><title>b1b2&#45;&gt;a1a2</title>
<path fill="none" stroke="green" d="M432.009,-221.762C388.628,-213.086 161.523,-167.665 96.5687,-154.674"/>
<polygon fill="green" stroke="green" points="96.9005,-151.171 86.4083,-152.642 95.5276,-158.035 96.9005,-151.171"/>
</g>
<!-- a1a3 -->
<g id="node35" class="node"><title>a1a3</title>
<ellipse fill="green" stroke="green" cx="79.2" cy="-223.2" rx="7.2" ry="7.2"/>
</g>
<!-- b1b3&#45;&gt;a1a3 -->
<g id="edge23" class="edge"><title>b1b3&#45;&gt;a1a3</title>
<path fill="none" stroke="green" d="M432.009,-293.762C388.628,-285.086 161.523,-239.665 96.5687,-226.674"/>
<polygon fill="green" stroke="green" points="96.9005,-223.171 86.4083,-224.642 95.5276,-230.035 96.9005,-223.171"/>
</g>
<!-- b2b0 -->
<g id="node17" class="node"><title>b2b0</title>
<ellipse fill="black" stroke="black" cx="511.2" cy="-79.2" rx="7.2" ry="7.2"/>
</g>
<!-- a2a3 -->
<g id="node44" class="node"><title>a2a3</title>
<ellipse fill="green" stroke="green" cx="151.2" cy="-223.2" rx="7.2" ry="7.2"/>
</g>
<!-- b2b3&#45;&gt;a2a3 -->
<g id="edge33" class="edge"><title>b2b3&#45;&gt;a2a3</title>
<path fill="none" stroke="green" d="M504.729,-291.832C463.245,-277.501 234.496,-231.394 168.825,-223.582"/>
<polygon fill="green" stroke="green" points="168.834,-220.066 158.543,-222.585 168.158,-227.034 168.834,-220.066"/>
</g>
<!-- b2b3&#45;&gt;a2a3 -->
<g id="edge35" class="edge"><title>b2b3&#45;&gt;a2a3</title>
<path fill="none" stroke="green" d="M503.931,-295.82C460.126,-293.093 231.24,-247.673 167.616,-229.626"/>
<polygon fill="green" stroke="green" points="168.328,-226.184 157.741,-226.592 166.272,-232.875 168.328,-226.184"/>
</g>
<!-- b3b0 -->
<g id="node24" class="node"><title>b3b0</title>
<ellipse fill="black" stroke="black" cx="583.2" cy="-79.2" rx="7.2" ry="7.2"/>
</g>
<!-- a1a0 -->
<g id="node31" class="node"><title>a1a0</title>
<ellipse fill="black" stroke="black" cx="79.2" cy="-7.2" rx="7.2" ry="7.2"/>
</g>
<!-- a1a1 -->
<g id="node32" class="node"><title>a1a1</title>
<ellipse fill="black" stroke="black" cx="79.2" cy="-79.2" rx="7.2" ry="7.2"/>
</g>
<!-- a1a2&#45;&gt;b2b2 -->
<g id="edge25" class="edge"><title>a1a2&#45;&gt;b2b2</title>
<path fill="none" stroke="yellow" d="M86.3377,-152.39C135.176,-160.529 420.293,-208.049 493.877,-220.313"/>
<polygon fill="yellow" stroke="yellow" points="493.363,-223.775 503.802,-221.967 494.513,-216.871 493.363,-223.775"/>
</g>
<!-- a1a2&#45;&gt;b3b2 -->
<g id="edge29" class="edge"><title>a1a2&#45;&gt;b3b2</title>
<path fill="none" stroke="yellow" d="M86.7157,-152.274C141.921,-160.16 484.842,-209.149 565.996,-220.742"/>
<polygon fill="yellow" stroke="yellow" points="565.611,-224.223 576.005,-222.172 566.601,-217.293 565.611,-224.223"/>
</g>
<!-- a1a3&#45;&gt;b2b3 -->
<g id="edge27" class="edge"><title>a1a3&#45;&gt;b2b3</title>
<path fill="none" stroke="yellow" d="M86.3377,-224.39C135.176,-232.529 420.293,-280.049 493.877,-292.313"/>
<polygon fill="yellow" stroke="yellow" points="493.363,-295.775 503.802,-293.967 494.513,-288.871 493.363,-295.775"/>
</g>
<!-- a1a3&#45;&gt;b3b3 -->
<g id="edge31" class="edge"><title>a1a3&#45;&gt;b3b3</title>
<path fill="none" stroke="yellow" d="M86.7157,-224.274C141.921,-232.16 484.842,-281.149 565.996,-292.742"/>
<polygon fill="yellow" stroke="yellow" points="565.611,-296.223 576.005,-294.172 566.601,-289.293 565.611,-296.223"/>
</g>
<!-- a2a0 -->
<g id="node41" class="node"><title>a2a0</title>
<ellipse fill="black" stroke="black" cx="151.2" cy="-7.2" rx="7.2" ry="7.2"/>
</g>
<!-- a2a1 -->
<g id="node42" class="node"><title>a2a1</title>
<ellipse fill="black" stroke="black" cx="151.2" cy="-79.2" rx="7.2" ry="7.2"/>
</g>
<!-- a2a2 -->
<g id="node43" class="node"><title>a2a2</title>
<ellipse fill="black" stroke="black" cx="151.2" cy="-151.2" rx="7.2" ry="7.2"/>
</g>
<!-- a2a3&#45;&gt;b3b3 -->
<g id="edge37" class="edge"><title>a2a3&#45;&gt;b3b3</title>
<path fill="none" stroke="yellow" d="M158.338,-224.39C207.176,-232.529 492.293,-280.049 565.877,-292.313"/>
<polygon fill="yellow" stroke="yellow" points="565.363,-295.775 575.802,-293.967 566.513,-288.871 565.363,-295.775"/>
</g>
<!-- a3a0 -->
<g id="node48" class="node"><title>a3a0</title>
<ellipse fill="black" stroke="black" cx="223.2" cy="-7.2" rx="7.2" ry="7.2"/>
</g>
<!-- a3a1 -->
<g id="node49" class="node"><title>a3a1</title>
<ellipse fill="black" stroke="black" cx="223.2" cy="-79.2" rx="7.2" ry="7.2"/>
</g>
<!-- a3a2 -->
<g id="node50" class="node"><title>a3a2</title>
<ellipse fill="black" stroke="black" cx="223.2" cy="-151.2" rx="7.2" ry="7.2"/>
</g>
<!-- a3a3 -->
<g id="node51" class="node"><title>a3a3</title>
<ellipse fill="black" stroke="black" cx="223.2" cy="-223.2" rx="7.2" ry="7.2"/>
</g>
</g>
</svg>
