<?xml version="1.0" encoding="UTF-8" standalone="no"?>
<!-- Generated by graphviz version 2.28.0 (20130109.1152)
 -->

<!-- Title: G Pages: 1 -->

<svg
   xmlns:dc="http://purl.org/dc/elements/1.1/"
   xmlns:cc="http://creativecommons.org/ns#"
   xmlns:rdf="http://www.w3.org/1999/02/22-rdf-syntax-ns#"
   xmlns:svg="http://www.w3.org/2000/svg"
   xmlns="http://www.w3.org/2000/svg"
   xmlns:sodipodi="http://sodipodi.sourceforge.net/DTD/sodipodi-0.dtd"
   xmlns:inkscape="http://www.inkscape.org/namespaces/inkscape"
   width="166pt"
   height="238pt"
   viewBox="0.00 0.00 166.20 238.40"
   id="svg2"
   version="1.1"
   inkscape:version="0.48.4 r9939"
   sodipodi:docname="2mm.svg"
   inkscape:export-filename="/home/sovereign/Repository/stage_2013/presentation/pictures/2mm.png"
   inkscape:export-xdpi="300"
   inkscape:export-ydpi="300">
  <metadata
     id="metadata123">
    <rdf:RDF>
      <cc:Work
         rdf:about="">
        <dc:format>image/svg+xml</dc:format>
        <dc:type
           rdf:resource="http://purl.org/dc/dcmitype/StillImage" />
        <dc:title></dc:title>
      </cc:Work>
    </rdf:RDF>
  </metadata>
  <defs
     id="defs121">
    <marker
       inkscape:stockid="Arrow1Mstart"
       orient="auto"
       refY="0.0"
       refX="0.0"
       id="Arrow1Mstart"
       style="overflow:visible">
      <path
         id="path3890"
         d="M 0.0,0.0 L 5.0,-5.0 L -12.5,0.0 L 5.0,5.0 L 0.0,0.0 z "
         style="fill-rule:evenodd;stroke:#000000;stroke-width:1.0pt"
         transform="scale(0.4) translate(10,0)" />
    </marker>
  </defs>
  <sodipodi:namedview
     pagecolor="#ffffff"
     bordercolor="#666666"
     borderopacity="1"
     objecttolerance="10"
     gridtolerance="10"
     guidetolerance="10"
     inkscape:pageopacity="0"
     inkscape:pageshadow="2"
     inkscape:window-width="760"
     inkscape:window-height="480"
     id="namedview119"
     showgrid="true"
     inkscape:snap-global="true"
     inkscape:zoom="1.5865546"
     inkscape:cx="-17.048075"
     inkscape:cy="86.925017"
     inkscape:window-x="496"
     inkscape:window-y="52"
     inkscape:window-maximized="0"
     inkscape:current-layer="svg2">
    <inkscape:grid
       type="xygrid"
       id="grid3102" />
  </sodipodi:namedview>
  <g
     id="graph1"
     class="graph"
     transform="scale(1 1) rotate(0) translate(4 234.4)">
    <title
       id="title5">G</title>
    <polygon
       fill="white"
       stroke="white"
       points="-4,5 -4,-234.4 163.2,-234.4 163.2,5 -4,5"
       id="polygon7" />
    <g
       id="graph2"
       class="cluster">
      <title
         id="title10">cluster_1</title>
      <polygon
         fill="lightgrey"
         stroke="black"
         points="0,-0 0,-86.4 86.2,-86.4 86.2,-0 0,-0"
         id="polygon12" />
      <text
         text-anchor="middle"
         x="43.1"
         y="-71.2"
         font-family="Times,serif"
         font-size="14.00"
         id="text14">nest 1</text>
    </g>
    <g
       id="graph3"
       class="cluster">
      <title
         id="title17">cluster_2</title>
      <polygon
         fill="none"
         stroke="black"
         points="0,-0 0,-230.4 158.2,-230.4 158.2,-0 0,-0"
         id="polygon19" />
      <text
         text-anchor="middle"
         x="79.1"
         y="-215.2"
         font-family="Times,serif"
         font-size="14.00"
         id="text21">nest 2</text>
    </g>
    <!-- a0a0 -->
    <g
       id="node2"
       class="node">
      <title
         id="title24">a0a0</title>
      <ellipse
         fill="red"
         stroke="red"
         cx="7.1"
         cy="-7.2"
         rx="7.2"
         ry="7.2"
         id="ellipse26"
         d="M 14.3,-7.1999998 C 14.3,-3.2235497 11.07645,0 7.0999999,0 3.1235498,0 -0.0999999,-3.2235497 -0.0999999,-7.1999998 -0.0999999,-11.17645 3.1235498,-14.4 7.0999999,-14.4 11.07645,-14.4 14.3,-11.17645 14.3,-7.1999998 z" />
    </g>
    <!-- b0b0 -->
    <g
       id="node7"
       class="node">
      <title
         id="title29">b0b0</title>
      <ellipse
         fill="green"
         stroke="green"
         cx="79.1"
         cy="-151.2"
         rx="7.2"
         ry="7.2"
         id="ellipse31"
         d="m 86.299998,-151.2 c 0,3.97645 -3.223549,7.2 -7.2,7.2 -3.97645,0 -7.199999,-3.22355 -7.199999,-7.2 0,-3.97645 3.223549,-7.2 7.199999,-7.2 3.976451,0 7.2,3.22355 7.2,7.2 z" />
    </g>
    <!-- a0a0&#45;&gt;b0b0 -->
    <g
       id="edge4"
       class="edge">
      <title
         id="title34">a0a0-&gt;b0b0</title>
      <path
         fill="none"
         stroke="blue"
         d="M10.3808,-13.7616C21.1571,-35.3142 55.6682,-104.336 71.2884,-135.577"
         id="path36" />
      <polygon
         fill="blue"
         stroke="blue"
         points="68.1973,-137.221 75.7999,-144.6 74.4583,-134.09 68.1973,-137.221"
         id="polygon38" />
    </g>
    <!-- b0b1 -->
    <g
       id="node10"
       class="node">
      <title
         id="title41">b0b1</title>
      <ellipse
         fill="green"
         stroke="green"
         cx="79.1"
         cy="-223.2"
         rx="7.2"
         ry="7.2"
         id="ellipse43"
         d="m 86.299998,-223.2 c 0,3.97645 -3.223549,7.2 -7.2,7.2 -3.97645,0 -7.199999,-3.22355 -7.199999,-7.2 0,-3.97645 3.223549,-7.2 7.199999,-7.2 3.976451,0 7.2,3.22355 7.2,7.2 z" />
    </g>
    <!-- a0a0&#45;&gt;b0b1 -->
    <g
       id="edge8"
       class="edge">
      <title
         id="title46">a0a0-&gt;b0b1</title>
      <path
         fill="none"
         stroke="blue"
         d="M9.49557,-14.3867C19.5966,-44.6897 58.865,-162.495 73.5326,-206.498"
         id="path48" />
      <polygon
         fill="blue"
         stroke="blue"
         points="70.2855,-207.825 76.7682,-216.205 76.9263,-205.611 70.2855,-207.825"
         id="polygon50" />
    </g>
    <!-- a0a1 -->
    <g
       id="node3"
       class="node">
      <title
         id="title53">a0a1</title>
      <ellipse
         fill="red"
         stroke="red"
         cx="7.1"
         cy="-79.2"
         rx="7.2"
         ry="7.2"
         id="ellipse55"
         d="m 14.3,-79.199997 c 0,3.97645 -3.22355,7.2 -7.2000001,7.2 -3.9764501,0 -7.1999998,-3.22355 -7.1999998,-7.2 0,-3.97645 3.2235497,-7.2 7.1999998,-7.2 3.9764501,0 7.2000001,3.22355 7.2000001,7.2 z" />
    </g>
    <!-- a0a1&#45;&gt;b0b0 -->
    <g
       id="edge6"
       class="edge">
      <title
         id="title58">a0a1-&gt;b0b0</title>
      <path
         fill="none"
         stroke="blue"
         d="M12.2781,-84.3781C23.5907,-95.6907 50.7762,-122.876 66.7692,-138.869"
         id="path60" />
      <polygon
         fill="blue"
         stroke="blue"
         points="64.4229,-141.473 73.9689,-146.069 69.3726,-136.523 64.4229,-141.473"
         id="polygon62" />
    </g>
    <!-- a0a1&#45;&gt;b0b1 -->
    <g
       id="edge10"
       class="edge">
      <title
         id="title65">a0a1-&gt;b0b1</title>
      <path
         fill="none"
         stroke="blue"
         d="M10.3808,-85.7616C21.1571,-107.314 55.6682,-176.336 71.2884,-207.577"
         id="path67" />
      <polygon
         fill="blue"
         stroke="blue"
         points="68.1973,-209.221 75.7999,-216.6 74.4583,-206.09 68.1973,-209.221"
         id="polygon69" />
    </g>
    <!-- a1a0 -->
    <g
       id="node4"
       class="node">
      <title
         id="title72">a1a0</title>
      <ellipse
         fill="red"
         stroke="red"
         cx="79.1"
         cy="-7.2"
         rx="7.2"
         ry="7.2"
         id="ellipse74"
         d="m 86.299998,-7.1999998 c 0,3.9764501 -3.223549,7.1999998 -7.2,7.1999998 -3.97645,0 -7.199999,-3.2235497 -7.199999,-7.1999998 0,-3.9764502 3.223549,-7.2000002 7.199999,-7.2000002 3.976451,0 7.2,3.22355 7.2,7.2000002 z" />
    </g>
    <!-- b1b0 -->
    <g
       id="node13"
       class="node">
      <title
         id="title77">b1b0</title>
      <ellipse
         fill="green"
         stroke="green"
         cx="151.1"
         cy="-151.2"
         rx="7.2"
         ry="7.2"
         id="ellipse79"
         d="m 158.30001,-151.2 c 0,3.97645 -3.22355,7.2 -7.2,7.2 -3.97645,0 -7.2,-3.22355 -7.2,-7.2 0,-3.97645 3.22355,-7.2 7.2,-7.2 3.97645,0 7.2,3.22355 7.2,7.2 z" />
    </g>
    <!-- a1a0&#45;&gt;b1b0 -->
    <g
       id="edge12"
       class="edge">
      <title
         id="title82">a1a0-&gt;b1b0</title>
      <path
         fill="none"
         stroke="blue"
         d="M82.3808,-13.7616C93.1571,-35.3142 127.668,-104.336 143.288,-135.577"
         id="path84" />
      <polygon
         fill="blue"
         stroke="blue"
         points="140.197,-137.221 147.8,-144.6 146.458,-134.09 140.197,-137.221"
         id="polygon86" />
    </g>
    <!-- b1b1 -->
    <g
       id="node16"
       class="node">
      <title
         id="title89">b1b1</title>
      <ellipse
         fill="green"
         stroke="green"
         cx="151.1"
         cy="-223.2"
         rx="7.2"
         ry="7.2"
         id="ellipse91"
         d="m 158.30001,-223.2 c 0,3.97645 -3.22355,7.2 -7.2,7.2 -3.97645,0 -7.2,-3.22355 -7.2,-7.2 0,-3.97645 3.22355,-7.2 7.2,-7.2 3.97645,0 7.2,3.22355 7.2,7.2 z" />
    </g>
    <!-- a1a0&#45;&gt;b1b1 -->
    <g
       id="edge16"
       class="edge">
      <title
         id="title94">a1a0-&gt;b1b1</title>
      <path
         fill="none"
         stroke="blue"
         d="M81.4956,-14.3867C91.5966,-44.6897 130.865,-162.495 145.533,-206.498"
         id="path96" />
      <polygon
         fill="blue"
         stroke="blue"
         points="142.286,-207.825 148.768,-216.205 148.926,-205.611 142.286,-207.825"
         id="polygon98" />
    </g>
    <!-- a1a1 -->
    <g
       id="node5"
       class="node">
      <title
         id="title101">a1a1</title>
      <ellipse
         fill="red"
         stroke="red"
         cx="79.1"
         cy="-79.2"
         rx="7.2"
         ry="7.2"
         id="ellipse103"
         d="m 86.299998,-79.199997 c 0,3.97645 -3.223549,7.2 -7.2,7.2 -3.97645,0 -7.199999,-3.22355 -7.199999,-7.2 0,-3.97645 3.223549,-7.2 7.199999,-7.2 3.976451,0 7.2,3.22355 7.2,7.2 z" />
    </g>
    <!-- a1a1&#45;&gt;b1b0 -->
    <g
       id="edge14"
       class="edge">
      <title
         id="title106">a1a1-&gt;b1b0</title>
      <path
         fill="none"
         stroke="blue"
         d="M84.2781,-84.3781C95.5907,-95.6907 122.776,-122.876 138.769,-138.869"
         id="path108" />
      <polygon
         fill="blue"
         stroke="blue"
         points="136.423,-141.473 145.969,-146.069 141.373,-136.523 136.423,-141.473"
         id="polygon110" />
    </g>
    <!-- a1a1&#45;&gt;b1b1 -->
    <g
       id="edge18"
       class="edge">
      <title
         id="title113">a1a1-&gt;b1b1</title>
      <path
         fill="none"
         stroke="blue"
         d="M82.3808,-85.7616C93.1571,-107.314 127.668,-176.336 143.288,-207.577"
         id="path115" />
      <polygon
         fill="blue"
         stroke="blue"
         points="140.197,-209.221 147.8,-216.6 146.458,-206.09 140.197,-209.221"
         id="polygon117" />
    </g>
  </g>
  <path
     style="fill:none;stroke:#000000;stroke-width:1px;stroke-linecap:butt;stroke-linejoin:miter;stroke-opacity:1;marker-start:url(#Arrow1Mstart)"
     d="m 35,282.5 -20,0 z"
     id="path5610"
     inkscape:connector-curvature="0"
     transform="matrix(0.80134454,0,0,0.80134454,-0.0394958,0)" />
  <path
     style="fill:none;stroke:#000000;stroke-width:1px;stroke-linecap:butt;stroke-linejoin:miter;stroke-opacity:1;marker-start:url(#Arrow1Mstart)"
     d="m 15,262.5 0,20 z"
     id="path5612"
     inkscape:connector-curvature="0"
     transform="matrix(0.80134454,0,0,0.80134454,-0.0394958,0)" />
  <text
     xml:space="preserve"
     style="font-size:18.35313225px;font-style:normal;font-weight:normal;line-height:125%;letter-spacing:0px;word-spacing:0px;fill:#000000;fill-opacity:1;stroke:none;font-family:Sans"
     x="13.667226"
     y="290.32401"
     id="text5980"
     sodipodi:linespacing="125%"
     transform="scale(1.1697615,0.85487511)"><tspan
       sodipodi:role="line"
       id="tspan5982"
       x="13.667226"
       y="290.32401">i</tspan></text>
  <text
     xml:space="preserve"
     style="font-size:11.30332851px;font-style:normal;font-weight:normal;line-height:50%;letter-spacing:0px;word-spacing:0px;fill:#000000;fill-opacity:1;stroke:none;font-family:Sans"
     x="-2.447228"
     y="201.86813"
     id="text5984"
     sodipodi:linespacing="50%"
     transform="scale(0.90160839,1.109129)"><tspan
       sodipodi:role="line"
       id="tspan5986"
       x="-2.447228"
       y="201.86813">j</tspan></text>
</svg>
