<?xml version="1.0" encoding="UTF-8" standalone="no"?>
<!-- Created with Inkscape (http://www.inkscape.org/) -->

<svg
   xmlns:dc="http://purl.org/dc/elements/1.1/"
   xmlns:cc="http://creativecommons.org/ns#"
   xmlns:rdf="http://www.w3.org/1999/02/22-rdf-syntax-ns#"
   xmlns:svg="http://www.w3.org/2000/svg"
   xmlns="http://www.w3.org/2000/svg"
   xmlns:sodipodi="http://sodipodi.sourceforge.net/DTD/sodipodi-0.dtd"
   xmlns:inkscape="http://www.inkscape.org/namespaces/inkscape"
   width="744.09448819"
   height="1052.3622047"
   id="svg2"
   version="1.1"
   inkscape:version="0.48.4 r9939"
   sodipodi:docname="3mmdomain2.svg"
   inkscape:export-filename="/home/sovereign/Repository/stage_2013/presentation/pictures/3mmdomain2.png"
   inkscape:export-xdpi="300"
   inkscape:export-ydpi="300">
  <defs
     id="defs4">
    <marker
       inkscape:stockid="Arrow1Sstart"
       orient="auto"
       refY="0.0"
       refX="0.0"
       id="Arrow1Sstart"
       style="overflow:visible">
      <path
         id="path4360"
         d="M 0.0,0.0 L 5.0,-5.0 L -12.5,0.0 L 5.0,5.0 L 0.0,0.0 z "
         style="fill-rule:evenodd;stroke:#000000;stroke-width:1.0pt"
         transform="scale(0.2) translate(6,0)" />
    </marker>
    <marker
       inkscape:stockid="Arrow1Send"
       orient="auto"
       refY="0.0"
       refX="0.0"
       id="Arrow1Send"
       style="overflow:visible;">
      <path
         id="path4363"
         d="M 0.0,0.0 L 5.0,-5.0 L -12.5,0.0 L 5.0,5.0 L 0.0,0.0 z "
         style="fill-rule:evenodd;stroke:#000000;stroke-width:1.0pt;"
         transform="scale(0.2) rotate(180) translate(6,0)" />
    </marker>
    <marker
       inkscape:stockid="Arrow1Mstart"
       orient="auto"
       refY="0.0"
       refX="0.0"
       id="Arrow1Mstart"
       style="overflow:visible">
      <path
         id="path4354"
         d="M 0.0,0.0 L 5.0,-5.0 L -12.5,0.0 L 5.0,5.0 L 0.0,0.0 z "
         style="fill-rule:evenodd;stroke:#000000;stroke-width:1.0pt"
         transform="scale(0.4) translate(10,0)" />
    </marker>
    <marker
       inkscape:stockid="Arrow1Mend"
       orient="auto"
       refY="0.0"
       refX="0.0"
       id="Arrow1Mend"
       style="overflow:visible;">
      <path
         id="path4357"
         d="M 0.0,0.0 L 5.0,-5.0 L -12.5,0.0 L 5.0,5.0 L 0.0,0.0 z "
         style="fill-rule:evenodd;stroke:#000000;stroke-width:1.0pt;"
         transform="scale(0.4) rotate(180) translate(10,0)" />
    </marker>
  </defs>
  <sodipodi:namedview
     id="base"
     pagecolor="#ffffff"
     bordercolor="#666666"
     borderopacity="1.0"
     inkscape:pageopacity="0.0"
     inkscape:pageshadow="2"
     inkscape:zoom="8"
     inkscape:cx="90.541254"
     inkscape:cy="737.2732"
     inkscape:document-units="px"
     inkscape:current-layer="layer1"
     showgrid="true"
     inkscape:window-width="525"
     inkscape:window-height="416"
     inkscape:window-x="556"
     inkscape:window-y="49"
     inkscape:window-maximized="0"
     inkscape:snap-midpoints="true">
    <inkscape:grid
       type="xygrid"
       id="grid2985" />
  </sodipodi:namedview>
  <metadata
     id="metadata7">
    <rdf:RDF>
      <cc:Work
         rdf:about="">
        <dc:format>image/svg+xml</dc:format>
        <dc:type
           rdf:resource="http://purl.org/dc/dcmitype/StillImage" />
        <dc:title></dc:title>
      </cc:Work>
    </rdf:RDF>
  </metadata>
  <g
     inkscape:label="Layer 1"
     inkscape:groupmode="layer"
     id="layer1">
    <path
       inkscape:tile-y0="272.36218"
       inkscape:tile-x0="60"
       d="m 70,277.36218 a 5,5 0 1 1 -10,0 5,5 0 1 1 10,0 z"
       sodipodi:ry="5"
       sodipodi:rx="5"
       sodipodi:cy="277.36218"
       sodipodi:cx="65"
       id="use3393"
       style="fill:#ff0000;fill-opacity:0.49019607999999998;stroke:#000000;stroke-width:0.23999999000000000;stroke-linejoin:miter;stroke-miterlimit:4;stroke-opacity:1;stroke-dasharray:none;stroke-dashoffset:0"
       sodipodi:type="arc"
       transform="translate(0,12)" />
    <path
       inkscape:tile-y0="272.36218"
       inkscape:tile-x0="60"
       d="m 70,277.36218 a 5,5 0 1 1 -10,0 5,5 0 1 1 10,0 z"
       sodipodi:ry="5"
       sodipodi:rx="5"
       sodipodi:cy="277.36218"
       sodipodi:cx="65"
       id="use3395"
       style="fill:#ff0000;fill-opacity:0.49019607999999998;stroke:#000000;stroke-width:0.23999999000000000;stroke-linejoin:miter;stroke-miterlimit:4;stroke-opacity:1;stroke-dasharray:none;stroke-dashoffset:0"
       sodipodi:type="arc"
       transform="translate(0,24)" />
    <path
       inkscape:tile-y0="272.36218"
       inkscape:tile-x0="60"
       d="m 70,277.36218 a 5,5 0 1 1 -10,0 5,5 0 1 1 10,0 z"
       sodipodi:ry="5"
       sodipodi:rx="5"
       sodipodi:cy="277.36218"
       sodipodi:cx="65"
       id="use3397"
       style="fill:#ff0000;fill-opacity:0.49019607999999998;stroke:#000000;stroke-width:0.23999999000000000;stroke-linejoin:miter;stroke-miterlimit:4;stroke-opacity:1;stroke-dasharray:none;stroke-dashoffset:0"
       sodipodi:type="arc"
       transform="translate(0,36)" />
    <path
       inkscape:tile-y0="272.36218"
       inkscape:tile-x0="60"
       d="m 70,277.36218 a 5,5 0 1 1 -10,0 5,5 0 1 1 10,0 z"
       sodipodi:ry="5"
       sodipodi:rx="5"
       sodipodi:cy="277.36218"
       sodipodi:cx="65"
       id="use3399"
       style="fill:#ff0000;fill-opacity:0.49019607999999998;stroke:#000000;stroke-width:0.23999999000000000;stroke-linejoin:miter;stroke-miterlimit:4;stroke-opacity:1;stroke-dasharray:none;stroke-dashoffset:0"
       sodipodi:type="arc"
       transform="translate(0,48)" />
    <path
       inkscape:tile-y0="272.36218"
       inkscape:tile-x0="60"
       d="m 70,277.36218 a 5,5 0 1 1 -10,0 5,5 0 1 1 10,0 z"
       sodipodi:ry="5"
       sodipodi:rx="5"
       sodipodi:cy="277.36218"
       sodipodi:cx="65"
       id="use3401"
       style="fill:#ff0000;fill-opacity:0.49019607999999998;stroke:#000000;stroke-width:0.23999999000000000;stroke-linejoin:miter;stroke-miterlimit:4;stroke-opacity:1;stroke-dasharray:none;stroke-dashoffset:0"
       sodipodi:type="arc"
       transform="translate(0,60)" />
    <path
       inkscape:tile-y0="272.36218"
       inkscape:tile-x0="60"
       d="m 70,277.36218 a 5,5 0 1 1 -10,0 5,5 0 1 1 10,0 z"
       sodipodi:ry="5"
       sodipodi:rx="5"
       sodipodi:cy="277.36218"
       sodipodi:cx="65"
       id="use3403"
       style="fill:#008000;fill-opacity:0.49019607999999998;stroke:#000000;stroke-width:0.23999999000000000;stroke-linejoin:miter;stroke-miterlimit:4;stroke-opacity:1;stroke-dasharray:none;stroke-dashoffset:0"
       sodipodi:type="arc"
       transform="translate(12,0)" />
    <path
       inkscape:tile-y0="272.36218"
       inkscape:tile-x0="60"
       d="m 70,277.36218 a 5,5 0 1 1 -10,0 5,5 0 1 1 10,0 z"
       sodipodi:ry="5"
       sodipodi:rx="5"
       sodipodi:cy="277.36218"
       sodipodi:cx="65"
       id="use3405"
       style="fill:#ffff00;fill-opacity:0.49019607999999998;stroke:#000000;stroke-width:0.23999999000000000;stroke-linejoin:miter;stroke-miterlimit:4;stroke-opacity:1;stroke-dasharray:none;stroke-dashoffset:0"
       sodipodi:type="arc"
       transform="translate(12,12)" />
    <path
       inkscape:tile-y0="272.36218"
       inkscape:tile-x0="60"
       d="m 70,277.36218 a 5,5 0 1 1 -10,0 5,5 0 1 1 10,0 z"
       sodipodi:ry="5"
       sodipodi:rx="5"
       sodipodi:cy="277.36218"
       sodipodi:cx="65"
       id="use3407"
       style="fill:#ffff00;fill-opacity:0.49019607999999998;stroke:#000000;stroke-width:0.23999999000000000;stroke-linejoin:miter;stroke-miterlimit:4;stroke-opacity:1;stroke-dasharray:none;stroke-dashoffset:0"
       sodipodi:type="arc"
       transform="translate(12,24)" />
    <path
       inkscape:tile-y0="272.36218"
       inkscape:tile-x0="60"
       d="m 70,277.36218 a 5,5 0 1 1 -10,0 5,5 0 1 1 10,0 z"
       sodipodi:ry="5"
       sodipodi:rx="5"
       sodipodi:cy="277.36218"
       sodipodi:cx="65"
       id="use3409"
       style="fill:#ffff00;fill-opacity:0.49019607999999998;stroke:#000000;stroke-width:0.23999999000000000;stroke-linejoin:miter;stroke-miterlimit:4;stroke-opacity:1;stroke-dasharray:none;stroke-dashoffset:0"
       sodipodi:type="arc"
       transform="translate(12,36)" />
    <path
       inkscape:tile-y0="272.36218"
       inkscape:tile-x0="60"
       d="m 70,277.36218 a 5,5 0 1 1 -10,0 5,5 0 1 1 10,0 z"
       sodipodi:ry="5"
       sodipodi:rx="5"
       sodipodi:cy="277.36218"
       sodipodi:cx="65"
       id="use3411"
       style="fill:#ffff00;fill-opacity:0.49019607999999998;stroke:#000000;stroke-width:0.23999999000000000;stroke-linejoin:miter;stroke-miterlimit:4;stroke-opacity:1;stroke-dasharray:none;stroke-dashoffset:0"
       sodipodi:type="arc"
       transform="translate(12,48)" />
    <path
       inkscape:tile-y0="272.36218"
       inkscape:tile-x0="60"
       d="m 70,277.36218 a 5,5 0 1 1 -10,0 5,5 0 1 1 10,0 z"
       sodipodi:ry="5"
       sodipodi:rx="5"
       sodipodi:cy="277.36218"
       sodipodi:cx="65"
       id="use3413"
       style="fill:#ff0000;fill-opacity:0.49019607999999998;stroke:#000000;stroke-width:0.23999999000000000;stroke-linejoin:miter;stroke-miterlimit:4;stroke-opacity:1;stroke-dasharray:none;stroke-dashoffset:0"
       sodipodi:type="arc"
       transform="translate(12,60)" />
    <path
       inkscape:tile-y0="272.36218"
       inkscape:tile-x0="60"
       d="m 70,277.36218 a 5,5 0 1 1 -10,0 5,5 0 1 1 10,0 z"
       sodipodi:ry="5"
       sodipodi:rx="5"
       sodipodi:cy="277.36218"
       sodipodi:cx="65"
       id="use3415"
       style="fill:#008000;fill-opacity:0.49019607999999998;stroke:#000000;stroke-width:0.23999999000000000;stroke-linejoin:miter;stroke-miterlimit:4;stroke-opacity:1;stroke-dasharray:none;stroke-dashoffset:0"
       sodipodi:type="arc"
       transform="translate(24,0)" />
    <path
       inkscape:tile-y0="272.36218"
       inkscape:tile-x0="60"
       d="m 70,277.36218 a 5,5 0 1 1 -10,0 5,5 0 1 1 10,0 z"
       sodipodi:ry="5"
       sodipodi:rx="5"
       sodipodi:cy="277.36218"
       sodipodi:cx="65"
       id="use3417"
       style="fill:#ffff00;fill-opacity:0.49019607999999998;stroke:#000000;stroke-width:0.23999999000000000;stroke-linejoin:miter;stroke-miterlimit:4;stroke-opacity:1;stroke-dasharray:none;stroke-dashoffset:0"
       sodipodi:type="arc"
       transform="translate(24,12)" />
    <path
       inkscape:tile-y0="272.36218"
       inkscape:tile-x0="60"
       d="m 70,277.36218 a 5,5 0 1 1 -10,0 5,5 0 1 1 10,0 z"
       sodipodi:ry="5"
       sodipodi:rx="5"
       sodipodi:cy="277.36218"
       sodipodi:cx="65"
       id="use3419"
       style="fill:#ffff00;fill-opacity:0.49019607999999998;stroke:#000000;stroke-width:0.23999999000000000;stroke-linejoin:miter;stroke-miterlimit:4;stroke-opacity:1;stroke-dasharray:none;stroke-dashoffset:0"
       sodipodi:type="arc"
       transform="translate(24,24)" />
    <path
       inkscape:tile-y0="272.36218"
       inkscape:tile-x0="60"
       d="m 70,277.36218 a 5,5 0 1 1 -10,0 5,5 0 1 1 10,0 z"
       sodipodi:ry="5"
       sodipodi:rx="5"
       sodipodi:cy="277.36218"
       sodipodi:cx="65"
       id="use3421"
       style="fill:#ffff00;fill-opacity:0.49019607999999998;stroke:#000000;stroke-width:0.23999999000000000;stroke-linejoin:miter;stroke-miterlimit:4;stroke-opacity:1;stroke-dasharray:none;stroke-dashoffset:0"
       sodipodi:type="arc"
       transform="translate(24,36)" />
    <path
       inkscape:tile-y0="272.36218"
       inkscape:tile-x0="60"
       d="m 70,277.36218 a 5,5 0 1 1 -10,0 5,5 0 1 1 10,0 z"
       sodipodi:ry="5"
       sodipodi:rx="5"
       sodipodi:cy="277.36218"
       sodipodi:cx="65"
       id="use3423"
       style="fill:#ffff00;fill-opacity:0.49019607999999998;stroke:#000000;stroke-width:0.23999999000000000;stroke-linejoin:miter;stroke-miterlimit:4;stroke-opacity:1;stroke-dasharray:none;stroke-dashoffset:0"
       sodipodi:type="arc"
       transform="translate(24,48)" />
    <path
       inkscape:tile-y0="272.36218"
       inkscape:tile-x0="60"
       d="m 70,277.36218 a 5,5 0 1 1 -10,0 5,5 0 1 1 10,0 z"
       sodipodi:ry="5"
       sodipodi:rx="5"
       sodipodi:cy="277.36218"
       sodipodi:cx="65"
       id="use3425"
       style="fill:#ff0000;fill-opacity:0.49019607999999998;stroke:#000000;stroke-width:0.23999999000000000;stroke-linejoin:miter;stroke-miterlimit:4;stroke-opacity:1;stroke-dasharray:none;stroke-dashoffset:0"
       sodipodi:type="arc"
       transform="translate(24,60)" />
    <path
       inkscape:tile-y0="272.36218"
       inkscape:tile-x0="60"
       d="m 70,277.36218 a 5,5 0 1 1 -10,0 5,5 0 1 1 10,0 z"
       sodipodi:ry="5"
       sodipodi:rx="5"
       sodipodi:cy="277.36218"
       sodipodi:cx="65"
       id="use3427"
       style="fill:#008000;fill-opacity:0.49019607999999998;stroke:#000000;stroke-width:0.23999999000000000;stroke-linejoin:miter;stroke-miterlimit:4;stroke-opacity:1;stroke-dasharray:none;stroke-dashoffset:0"
       sodipodi:type="arc"
       transform="translate(36,0)" />
    <path
       inkscape:tile-y0="272.36218"
       inkscape:tile-x0="60"
       d="m 70,277.36218 a 5,5 0 1 1 -10,0 5,5 0 1 1 10,0 z"
       sodipodi:ry="5"
       sodipodi:rx="5"
       sodipodi:cy="277.36218"
       sodipodi:cx="65"
       id="use3429"
       style="fill:#ffff00;fill-opacity:0.49019607999999998;stroke:#000000;stroke-width:0.23999999000000000;stroke-linejoin:miter;stroke-miterlimit:4;stroke-opacity:1;stroke-dasharray:none;stroke-dashoffset:0"
       sodipodi:type="arc"
       transform="translate(36,12)" />
    <path
       inkscape:tile-y0="272.36218"
       inkscape:tile-x0="60"
       d="m 70,277.36218 a 5,5 0 1 1 -10,0 5,5 0 1 1 10,0 z"
       sodipodi:ry="5"
       sodipodi:rx="5"
       sodipodi:cy="277.36218"
       sodipodi:cx="65"
       id="use3431"
       style="fill:#ffff00;fill-opacity:0.49019607999999998;stroke:#000000;stroke-width:0.23999999000000000;stroke-linejoin:miter;stroke-miterlimit:4;stroke-opacity:1;stroke-dasharray:none;stroke-dashoffset:0"
       sodipodi:type="arc"
       transform="translate(36,24)" />
    <path
       inkscape:tile-y0="272.36218"
       inkscape:tile-x0="60"
       d="m 70,277.36218 a 5,5 0 1 1 -10,0 5,5 0 1 1 10,0 z"
       sodipodi:ry="5"
       sodipodi:rx="5"
       sodipodi:cy="277.36218"
       sodipodi:cx="65"
       id="use3433"
       style="fill:#ffff00;fill-opacity:0.49019607999999998;stroke:#000000;stroke-width:0.23999999000000000;stroke-linejoin:miter;stroke-miterlimit:4;stroke-opacity:1;stroke-dasharray:none;stroke-dashoffset:0"
       sodipodi:type="arc"
       transform="translate(36,36)" />
    <path
       inkscape:tile-y0="272.36218"
       inkscape:tile-x0="60"
       d="m 70,277.36218 a 5,5 0 1 1 -10,0 5,5 0 1 1 10,0 z"
       sodipodi:ry="5"
       sodipodi:rx="5"
       sodipodi:cy="277.36218"
       sodipodi:cx="65"
       id="use3435"
       style="fill:#ffff00;fill-opacity:0.49019607999999998;stroke:#000000;stroke-width:0.23999999000000000;stroke-linejoin:miter;stroke-miterlimit:4;stroke-opacity:1;stroke-dasharray:none;stroke-dashoffset:0"
       sodipodi:type="arc"
       transform="translate(36,48)" />
    <path
       inkscape:tile-y0="272.36218"
       inkscape:tile-x0="60"
       d="m 70,277.36218 a 5,5 0 1 1 -10,0 5,5 0 1 1 10,0 z"
       sodipodi:ry="5"
       sodipodi:rx="5"
       sodipodi:cy="277.36218"
       sodipodi:cx="65"
       id="use3437"
       style="fill:#ff0000;fill-opacity:0.49019607999999998;stroke:#000000;stroke-width:0.23999999000000000;stroke-linejoin:miter;stroke-miterlimit:4;stroke-opacity:1;stroke-dasharray:none;stroke-dashoffset:0"
       sodipodi:type="arc"
       transform="translate(36,60)" />
    <path
       inkscape:tile-y0="272.36218"
       inkscape:tile-x0="60"
       d="m 70,277.36218 a 5,5 0 1 1 -10,0 5,5 0 1 1 10,0 z"
       sodipodi:ry="5"
       sodipodi:rx="5"
       sodipodi:cy="277.36218"
       sodipodi:cx="65"
       id="use3439"
       style="fill:#008000;fill-opacity:0.49019607999999998;stroke:#000000;stroke-width:0.23999999000000000;stroke-linejoin:miter;stroke-miterlimit:4;stroke-opacity:1;stroke-dasharray:none;stroke-dashoffset:0"
       sodipodi:type="arc"
       transform="translate(48,0)" />
    <path
       inkscape:tile-y0="272.36218"
       inkscape:tile-x0="60"
       d="m 70,277.36218 a 5,5 0 1 1 -10,0 5,5 0 1 1 10,0 z"
       sodipodi:ry="5"
       sodipodi:rx="5"
       sodipodi:cy="277.36218"
       sodipodi:cx="65"
       id="use3441"
       style="fill:#ffff00;fill-opacity:0.49019607999999998;stroke:#000000;stroke-width:0.23999999000000000;stroke-linejoin:miter;stroke-miterlimit:4;stroke-opacity:1;stroke-dasharray:none;stroke-dashoffset:0"
       sodipodi:type="arc"
       transform="translate(48,12)" />
    <path
       inkscape:tile-y0="272.36218"
       inkscape:tile-x0="60"
       d="m 70,277.36218 a 5,5 0 1 1 -10,0 5,5 0 1 1 10,0 z"
       sodipodi:ry="5"
       sodipodi:rx="5"
       sodipodi:cy="277.36218"
       sodipodi:cx="65"
       id="use3443"
       style="fill:#ffff00;fill-opacity:0.49019607999999998;stroke:#000000;stroke-width:0.23999999000000000;stroke-linejoin:miter;stroke-miterlimit:4;stroke-opacity:1;stroke-dasharray:none;stroke-dashoffset:0"
       sodipodi:type="arc"
       transform="translate(48,24)" />
    <path
       inkscape:tile-y0="272.36218"
       inkscape:tile-x0="60"
       d="m 70,277.36218 a 5,5 0 1 1 -10,0 5,5 0 1 1 10,0 z"
       sodipodi:ry="5"
       sodipodi:rx="5"
       sodipodi:cy="277.36218"
       sodipodi:cx="65"
       id="use3445"
       style="fill:#ffff00;fill-opacity:0.49019607999999998;stroke:#000000;stroke-width:0.23999999000000000;stroke-linejoin:miter;stroke-miterlimit:4;stroke-opacity:1;stroke-dasharray:none;stroke-dashoffset:0"
       sodipodi:type="arc"
       transform="translate(48,36)" />
    <path
       inkscape:tile-y0="272.36218"
       inkscape:tile-x0="60"
       d="m 70,277.36218 a 5,5 0 1 1 -10,0 5,5 0 1 1 10,0 z"
       sodipodi:ry="5"
       sodipodi:rx="5"
       sodipodi:cy="277.36218"
       sodipodi:cx="65"
       id="use3447"
       style="fill:#ffff00;fill-opacity:0.49019607999999998;stroke:#000000;stroke-width:0.23999999000000000;stroke-linejoin:miter;stroke-miterlimit:4;stroke-opacity:1;stroke-dasharray:none;stroke-dashoffset:0"
       sodipodi:type="arc"
       transform="translate(48,48)" />
    <path
       inkscape:tile-y0="272.36218"
       inkscape:tile-x0="60"
       d="m 70,277.36218 a 5,5 0 1 1 -10,0 5,5 0 1 1 10,0 z"
       sodipodi:ry="5"
       sodipodi:rx="5"
       sodipodi:cy="277.36218"
       sodipodi:cx="65"
       id="use3449"
       style="fill:#ff0000;fill-opacity:0.49019607999999998;stroke:#000000;stroke-width:0.23999999000000000;stroke-linejoin:miter;stroke-miterlimit:4;stroke-opacity:1;stroke-dasharray:none;stroke-dashoffset:0"
       sodipodi:type="arc"
       transform="translate(48,60)" />
    <path
       inkscape:tile-y0="272.36218"
       inkscape:tile-x0="60"
       d="m 70,277.36218 a 5,5 0 1 1 -10,0 5,5 0 1 1 10,0 z"
       sodipodi:ry="5"
       sodipodi:rx="5"
       sodipodi:cy="277.36218"
       sodipodi:cx="65"
       id="use3451"
       style="fill:#008000;fill-opacity:0.49019607999999998;stroke:#000000;stroke-width:0.23999999000000000;stroke-linejoin:miter;stroke-miterlimit:4;stroke-opacity:1;stroke-dasharray:none;stroke-dashoffset:0"
       sodipodi:type="arc"
       transform="translate(60,0)" />
    <path
       inkscape:tile-y0="272.36218"
       inkscape:tile-x0="60"
       d="m 70,277.36218 a 5,5 0 1 1 -10,0 5,5 0 1 1 10,0 z"
       sodipodi:ry="5"
       sodipodi:rx="5"
       sodipodi:cy="277.36218"
       sodipodi:cx="65"
       id="use3453"
       style="fill:#008000;fill-opacity:0.49019607999999998;stroke:#000000;stroke-width:0.23999999000000000;stroke-linejoin:miter;stroke-miterlimit:4;stroke-opacity:1;stroke-dasharray:none;stroke-dashoffset:0"
       sodipodi:type="arc"
       transform="translate(60,12)" />
    <path
       inkscape:tile-y0="272.36218"
       inkscape:tile-x0="60"
       d="m 70,277.36218 a 5,5 0 1 1 -10,0 5,5 0 1 1 10,0 z"
       sodipodi:ry="5"
       sodipodi:rx="5"
       sodipodi:cy="277.36218"
       sodipodi:cx="65"
       id="use3455"
       style="fill:#008000;fill-opacity:0.49019607999999998;stroke:#000000;stroke-width:0.23999999000000000;stroke-linejoin:miter;stroke-miterlimit:4;stroke-opacity:1;stroke-dasharray:none;stroke-dashoffset:0"
       sodipodi:type="arc"
       transform="translate(60,24)" />
    <path
       inkscape:tile-y0="272.36218"
       inkscape:tile-x0="60"
       d="m 70,277.36218 a 5,5 0 1 1 -10,0 5,5 0 1 1 10,0 z"
       sodipodi:ry="5"
       sodipodi:rx="5"
       sodipodi:cy="277.36218"
       sodipodi:cx="65"
       id="use3457"
       style="fill:#008000;fill-opacity:0.49019607999999998;stroke:#000000;stroke-width:0.23999999000000000;stroke-linejoin:miter;stroke-miterlimit:4;stroke-opacity:1;stroke-dasharray:none;stroke-dashoffset:0"
       sodipodi:type="arc"
       transform="translate(60,36)" />
    <path
       inkscape:tile-y0="272.36218"
       inkscape:tile-x0="60"
       d="m 70,277.36218 a 5,5 0 1 1 -10,0 5,5 0 1 1 10,0 z"
       sodipodi:ry="5"
       sodipodi:rx="5"
       sodipodi:cy="277.36218"
       sodipodi:cx="65"
       id="use3459"
       style="fill:#008000;fill-opacity:0.49019607999999998;stroke:#000000;stroke-width:0.23999999000000000;stroke-linejoin:miter;stroke-miterlimit:4;stroke-opacity:1;stroke-dasharray:none;stroke-dashoffset:0"
       sodipodi:type="arc"
       transform="translate(60,48)" />
    <path
       transform="translate(84.96608,4.9073949)"
       sodipodi:type="arc"
       style="fill:#ffff00;fill-opacity:0.49019608;stroke:#000000;stroke-width:0.23999999;stroke-linejoin:miter;stroke-miterlimit:4;stroke-opacity:1;stroke-dasharray:none;stroke-dashoffset:0"
       id="path3535"
       sodipodi:cx="65"
       sodipodi:cy="277.36218"
       sodipodi:rx="5"
       sodipodi:ry="5"
       d="m 70,277.36218 a 5,5 0 1 1 -10,0 5,5 0 1 1 10,0 z"
       inkscape:tile-x0="60"
       inkscape:tile-y0="272.36218" />
    <path
       transform="translate(85.53033,25.214286)"
       sodipodi:type="arc"
       style="fill:#008000;fill-opacity:0.49019608;stroke:#000000;stroke-width:0.23999999;stroke-linejoin:miter;stroke-miterlimit:4;stroke-opacity:1;stroke-dasharray:none;stroke-dashoffset:0"
       id="path3537"
       sodipodi:cx="65"
       sodipodi:cy="277.36218"
       sodipodi:rx="5"
       sodipodi:ry="5"
       d="m 70,277.36218 a 5,5 0 1 1 -10,0 5,5 0 1 1 10,0 z"
       inkscape:tile-x0="60"
       inkscape:tile-y0="272.36218" />
    <path
       transform="translate(84.789304,44.419417)"
       sodipodi:type="arc"
       style="fill:#ff0000;fill-opacity:0.49019608;stroke:#000000;stroke-width:0.23999999;stroke-linejoin:miter;stroke-miterlimit:4;stroke-opacity:1;stroke-dasharray:none;stroke-dashoffset:0"
       id="path3539"
       sodipodi:cx="65"
       sodipodi:cy="277.36218"
       sodipodi:rx="5"
       sodipodi:ry="5"
       d="m 70,277.36218 a 5,5 0 1 1 -10,0 5,5 0 1 1 10,0 z"
       inkscape:tile-x0="60"
       inkscape:tile-y0="272.36218" />
    <path
       style="fill:none;stroke:#000000;stroke-width:1px;stroke-linecap:butt;stroke-linejoin:miter;stroke-opacity:1;marker-start:url(#Arrow1Sstart);marker-end:url(#Arrow1Send)"
       d="m 71,337.36218 -6,0 0,-6"
       id="path7356"
       inkscape:connector-curvature="0" />
    <text
       xml:space="preserve"
       style="font-size:17.60883141px;font-style:normal;font-weight:normal;line-height:125%;letter-spacing:0px;word-spacing:0px;fill:#000000;fill-opacity:1;stroke:none;font-family:Sans"
       x="169.526"
       y="318.62228"
       id="text8852"
       sodipodi:linespacing="125%"
       transform="scale(0.97330204,1.0274303)"><tspan
         sodipodi:role="line"
         id="tspan8854"
         x="169.526"
         y="318.62228">E + F</tspan></text>
    <text
       xml:space="preserve"
       style="font-size:18.08706093px;font-style:normal;font-weight:normal;line-height:125%;letter-spacing:0px;word-spacing:0px;fill:#000000;fill-opacity:1;stroke:none;font-family:Sans"
       x="180.53033"
       y="262.64151"
       id="text8856"
       sodipodi:linespacing="125%"
       transform="scale(0.91397385,1.0941232)"><tspan
         sodipodi:role="line"
         id="tspan8858"
         x="180.53033"
         y="262.64151">E + F + G</tspan></text>
    <text
       xml:space="preserve"
       style="font-size:16.86243629px;font-style:normal;font-weight:normal;line-height:125%;letter-spacing:0px;word-spacing:0px;fill:#000000;fill-opacity:1;stroke:none;font-family:Sans"
       x="148.85126"
       y="340.70764"
       id="text8860"
       sodipodi:linespacing="125%"
       transform="scale(1.1084891,0.90212885)"><tspan
         sodipodi:role="line"
         id="tspan8862"
         x="148.85126"
         y="340.70764">G</tspan></text>
    <path
       style="fill:none;stroke:#0000ff;stroke-width:0.4;stroke-linecap:butt;stroke-linejoin:miter;stroke-opacity:1;stroke-miterlimit:4;stroke-dasharray:0.8,0.4;stroke-dashoffset:0;marker-mid:url(#Arrow1Mend)"
       d="m 65,337.36218 24,0 24,0 -48,-12 24,0 24,0 -48,-12 24,0 24,0 -48,-12 24,0 24,0 -48,-12 24,0 24,0"
       id="path8887"
       inkscape:connector-curvature="0" />
  </g>
</svg>
