<?xml version="1.0" encoding="UTF-8" standalone="no"?>
<!-- Created with Inkscape (http://www.inkscape.org/) -->

<svg
   xmlns:dc="http://purl.org/dc/elements/1.1/"
   xmlns:cc="http://creativecommons.org/ns#"
   xmlns:rdf="http://www.w3.org/1999/02/22-rdf-syntax-ns#"
   xmlns:svg="http://www.w3.org/2000/svg"
   xmlns="http://www.w3.org/2000/svg"
   xmlns:sodipodi="http://sodipodi.sourceforge.net/DTD/sodipodi-0.dtd"
   xmlns:inkscape="http://www.inkscape.org/namespaces/inkscape"
   width="744.09448819"
   height="1052.3622047"
   id="svg2"
   version="1.1"
   inkscape:version="0.48.4 r9939"
   sodipodi:docname="floyd-warshall-domain.svg"
   inkscape:export-filename="/home/sovereign/Repository/stage_2013/presentation/pictures/floyd-warshall-domain.png"
   inkscape:export-xdpi="300"
   inkscape:export-ydpi="300">
  <defs
     id="defs4">
    <marker
       inkscape:stockid="Arrow1Mend"
       orient="auto"
       refY="0.0"
       refX="0.0"
       id="Arrow1Mend"
       style="overflow:visible;">
      <path
         id="path3935"
         d="M 0.0,0.0 L 5.0,-5.0 L -12.5,0.0 L 5.0,5.0 L 0.0,0.0 z "
         style="fill-rule:evenodd;stroke:#000000;stroke-width:1.0pt;"
         transform="scale(0.4) rotate(180) translate(10,0)" />
    </marker>
    <marker
       inkscape:stockid="Arrow1Mstart"
       orient="auto"
       refY="0.0"
       refX="0.0"
       id="Arrow1Mstart"
       style="overflow:visible">
      <path
         id="path3932"
         d="M 0.0,0.0 L 5.0,-5.0 L -12.5,0.0 L 5.0,5.0 L 0.0,0.0 z "
         style="fill-rule:evenodd;stroke:#000000;stroke-width:1.0pt"
         transform="scale(0.4) translate(10,0)" />
    </marker>
  </defs>
  <sodipodi:namedview
     id="base"
     pagecolor="#ffffff"
     bordercolor="#666666"
     borderopacity="1.0"
     inkscape:pageopacity="0.0"
     inkscape:pageshadow="2"
     inkscape:zoom="2.8304417"
     inkscape:cx="134.05183"
     inkscape:cy="683.04584"
     inkscape:document-units="px"
     inkscape:current-layer="layer1"
     showgrid="false"
     inkscape:window-width="1366"
     inkscape:window-height="742"
     inkscape:window-x="0"
     inkscape:window-y="0"
     inkscape:window-maximized="1">
    <inkscape:grid
       type="xygrid"
       id="grid2985" />
  </sodipodi:namedview>
  <metadata
     id="metadata7">
    <rdf:RDF>
      <cc:Work
         rdf:about="">
        <dc:format>image/svg+xml</dc:format>
        <dc:type
           rdf:resource="http://purl.org/dc/dcmitype/StillImage" />
        <dc:title></dc:title>
      </cc:Work>
    </rdf:RDF>
  </metadata>
  <g
     inkscape:label="Layer 1"
     inkscape:groupmode="layer"
     id="layer1">
    <path
       inkscape:tile-y0="272.36218"
       inkscape:tile-x0="80"
       d="m 100,282.36218 a 10,10 0 1 1 -20,0 10,10 0 1 1 20,0 z"
       sodipodi:ry="10"
       sodipodi:rx="10"
       sodipodi:cy="282.36218"
       sodipodi:cx="90"
       id="use3757"
       style="fill:#ff0008;fill-opacity:0.49115044;stroke:#000000;stroke-width:0.40000001;stroke-linecap:butt;stroke-linejoin:miter;stroke-miterlimit:4;stroke-opacity:1;stroke-dasharray:none;stroke-dashoffset:0"
       sodipodi:type="arc" />
    <path
       inkscape:tile-y0="272.36218"
       inkscape:tile-x0="80"
       d="m 100,282.36218 a 10,10 0 1 1 -20,0 10,10 0 1 1 20,0 z"
       sodipodi:ry="10"
       sodipodi:rx="10"
       sodipodi:cy="282.36218"
       sodipodi:cx="90"
       id="use3759"
       style="fill:#ff0008;fill-opacity:0.49115044;stroke:#000000;stroke-width:0.40000001;stroke-linecap:butt;stroke-linejoin:miter;stroke-miterlimit:4;stroke-opacity:1;stroke-dasharray:none;stroke-dashoffset:0"
       sodipodi:type="arc"
       transform="translate(0,24)" />
    <path
       inkscape:tile-y0="272.36218"
       inkscape:tile-x0="80"
       d="m 100,282.36218 a 10,10 0 1 1 -20,0 10,10 0 1 1 20,0 z"
       sodipodi:ry="10"
       sodipodi:rx="10"
       sodipodi:cy="282.36218"
       sodipodi:cx="90"
       id="use3761"
       style="fill:#ff0008;fill-opacity:0.49115044;stroke:#000000;stroke-width:0.40000001;stroke-linecap:butt;stroke-linejoin:miter;stroke-miterlimit:4;stroke-opacity:1;stroke-dasharray:none;stroke-dashoffset:0"
       sodipodi:type="arc"
       transform="translate(0,48)" />
    <path
       inkscape:tile-y0="272.36218"
       inkscape:tile-x0="80"
       d="m 100,282.36218 a 10,10 0 1 1 -20,0 10,10 0 1 1 20,0 z"
       sodipodi:ry="10"
       sodipodi:rx="10"
       sodipodi:cy="282.36218"
       sodipodi:cx="90"
       id="use3763"
       style="fill:#008000;fill-opacity:0.49115044000000002;stroke:#000000;stroke-width:0.40000001000000002;stroke-linecap:butt;stroke-linejoin:miter;stroke-miterlimit:4;stroke-opacity:1;stroke-dasharray:none;stroke-dashoffset:0"
       sodipodi:type="arc"
       transform="translate(0,72)" />
    <path
       inkscape:tile-y0="272.36218"
       inkscape:tile-x0="80"
       d="m 100,282.36218 a 10,10 0 1 1 -20,0 10,10 0 1 1 20,0 z"
       sodipodi:ry="10"
       sodipodi:rx="10"
       sodipodi:cy="282.36218"
       sodipodi:cx="90"
       id="use3765"
       style="fill:#008000;fill-opacity:0.49115044000000002;stroke:#000000;stroke-width:0.40000001000000002;stroke-linecap:butt;stroke-linejoin:miter;stroke-miterlimit:4;stroke-opacity:1;stroke-dasharray:none;stroke-dashoffset:0"
       sodipodi:type="arc"
       transform="translate(0,96)" />
    <path
       inkscape:tile-y0="272.36218"
       inkscape:tile-x0="80"
       d="m 100,282.36218 a 10,10 0 1 1 -20,0 10,10 0 1 1 20,0 z"
       sodipodi:ry="10"
       sodipodi:rx="10"
       sodipodi:cy="282.36218"
       sodipodi:cx="90"
       id="use3767"
       style="fill:#008000;fill-opacity:0.49115044000000002;stroke:#000000;stroke-width:0.40000001000000002;stroke-linecap:butt;stroke-linejoin:miter;stroke-miterlimit:4;stroke-opacity:1;stroke-dasharray:none;stroke-dashoffset:0"
       sodipodi:type="arc"
       transform="translate(0,120)" />
    <path
       inkscape:tile-y0="272.36218"
       inkscape:tile-x0="80"
       d="m 100,282.36218 a 10,10 0 1 1 -20,0 10,10 0 1 1 20,0 z"
       sodipodi:ry="10"
       sodipodi:rx="10"
       sodipodi:cy="282.36218"
       sodipodi:cx="90"
       id="use3769"
       style="fill:#ff0008;fill-opacity:0.49115044;stroke:#000000;stroke-width:0.40000001;stroke-linecap:butt;stroke-linejoin:miter;stroke-miterlimit:4;stroke-opacity:1;stroke-dasharray:none;stroke-dashoffset:0"
       sodipodi:type="arc"
       transform="translate(24,0)" />
    <path
       inkscape:tile-y0="272.36218"
       inkscape:tile-x0="80"
       d="m 100,282.36218 a 10,10 0 1 1 -20,0 10,10 0 1 1 20,0 z"
       sodipodi:ry="10"
       sodipodi:rx="10"
       sodipodi:cy="282.36218"
       sodipodi:cx="90"
       id="use3771"
       style="fill:#ff0008;fill-opacity:0.49115044;stroke:#000000;stroke-width:0.40000001;stroke-linecap:butt;stroke-linejoin:miter;stroke-miterlimit:4;stroke-opacity:1;stroke-dasharray:none;stroke-dashoffset:0"
       sodipodi:type="arc"
       transform="translate(24,24)" />
    <path
       inkscape:tile-y0="272.36218"
       inkscape:tile-x0="80"
       d="m 100,282.36218 a 10,10 0 1 1 -20,0 10,10 0 1 1 20,0 z"
       sodipodi:ry="10"
       sodipodi:rx="10"
       sodipodi:cy="282.36218"
       sodipodi:cx="90"
       id="use3773"
       style="fill:#ff0008;fill-opacity:0.49115044;stroke:#000000;stroke-width:0.40000001;stroke-linecap:butt;stroke-linejoin:miter;stroke-miterlimit:4;stroke-opacity:1;stroke-dasharray:none;stroke-dashoffset:0"
       sodipodi:type="arc"
       transform="translate(24,48)" />
    <path
       inkscape:tile-y0="272.36218"
       inkscape:tile-x0="80"
       d="m 100,282.36218 a 10,10 0 1 1 -20,0 10,10 0 1 1 20,0 z"
       sodipodi:ry="10"
       sodipodi:rx="10"
       sodipodi:cy="282.36218"
       sodipodi:cx="90"
       id="use3775"
       style="fill:#008000;fill-opacity:0.49115044000000002;stroke:#000000;stroke-width:0.40000001000000002;stroke-linecap:butt;stroke-linejoin:miter;stroke-miterlimit:4;stroke-opacity:1;stroke-dasharray:none;stroke-dashoffset:0"
       sodipodi:type="arc"
       transform="translate(24,72)" />
    <path
       inkscape:tile-y0="272.36218"
       inkscape:tile-x0="80"
       d="m 100,282.36218 a 10,10 0 1 1 -20,0 10,10 0 1 1 20,0 z"
       sodipodi:ry="10"
       sodipodi:rx="10"
       sodipodi:cy="282.36218"
       sodipodi:cx="90"
       id="use3777"
       style="fill:#008000;fill-opacity:0.49115044000000002;stroke:#000000;stroke-width:0.40000001000000002;stroke-linecap:butt;stroke-linejoin:miter;stroke-miterlimit:4;stroke-opacity:1;stroke-dasharray:none;stroke-dashoffset:0"
       sodipodi:type="arc"
       transform="translate(24,96)" />
    <path
       inkscape:tile-y0="272.36218"
       inkscape:tile-x0="80"
       d="m 100,282.36218 a 10,10 0 1 1 -20,0 10,10 0 1 1 20,0 z"
       sodipodi:ry="10"
       sodipodi:rx="10"
       sodipodi:cy="282.36218"
       sodipodi:cx="90"
       id="use3779"
       style="fill:#008000;fill-opacity:0.49115044000000002;stroke:#000000;stroke-width:0.40000001000000002;stroke-linecap:butt;stroke-linejoin:miter;stroke-miterlimit:4;stroke-opacity:1;stroke-dasharray:none;stroke-dashoffset:0"
       sodipodi:type="arc"
       transform="translate(24,120)" />
    <path
       inkscape:tile-y0="272.36218"
       inkscape:tile-x0="80"
       d="m 100,282.36218 a 10,10 0 1 1 -20,0 10,10 0 1 1 20,0 z"
       sodipodi:ry="10"
       sodipodi:rx="10"
       sodipodi:cy="282.36218"
       sodipodi:cx="90"
       id="use3781"
       style="fill:#ff0008;fill-opacity:0.49115044;stroke:#000000;stroke-width:0.40000001;stroke-linecap:butt;stroke-linejoin:miter;stroke-miterlimit:4;stroke-opacity:1;stroke-dasharray:none;stroke-dashoffset:0"
       sodipodi:type="arc"
       transform="translate(48,0)" />
    <path
       inkscape:tile-y0="272.36218"
       inkscape:tile-x0="80"
       d="m 100,282.36218 a 10,10 0 1 1 -20,0 10,10 0 1 1 20,0 z"
       sodipodi:ry="10"
       sodipodi:rx="10"
       sodipodi:cy="282.36218"
       sodipodi:cx="90"
       id="use3783"
       style="fill:#ff0008;fill-opacity:0.49115044;stroke:#000000;stroke-width:0.40000001;stroke-linecap:butt;stroke-linejoin:miter;stroke-miterlimit:4;stroke-opacity:1;stroke-dasharray:none;stroke-dashoffset:0"
       sodipodi:type="arc"
       transform="translate(48,24)" />
    <path
       inkscape:tile-y0="272.36218"
       inkscape:tile-x0="80"
       d="m 100,282.36218 a 10,10 0 1 1 -20,0 10,10 0 1 1 20,0 z"
       sodipodi:ry="10"
       sodipodi:rx="10"
       sodipodi:cy="282.36218"
       sodipodi:cx="90"
       id="use3785"
       style="fill:#ff0008;fill-opacity:0.49115044;stroke:#000000;stroke-width:0.40000001;stroke-linecap:butt;stroke-linejoin:miter;stroke-miterlimit:4;stroke-opacity:1;stroke-dasharray:none;stroke-dashoffset:0"
       sodipodi:type="arc"
       transform="translate(48,48)" />
    <path
       inkscape:tile-y0="272.36218"
       inkscape:tile-x0="80"
       d="m 100,282.36218 a 10,10 0 1 1 -20,0 10,10 0 1 1 20,0 z"
       sodipodi:ry="10"
       sodipodi:rx="10"
       sodipodi:cy="282.36218"
       sodipodi:cx="90"
       id="use3787"
       style="fill:#008000;fill-opacity:0.49115044000000002;stroke:#000000;stroke-width:0.40000001000000002;stroke-linecap:butt;stroke-linejoin:miter;stroke-miterlimit:4;stroke-opacity:1;stroke-dasharray:none;stroke-dashoffset:0"
       sodipodi:type="arc"
       transform="translate(48,72)" />
    <path
       inkscape:tile-y0="272.36218"
       inkscape:tile-x0="80"
       d="m 100,282.36218 a 10,10 0 1 1 -20,0 10,10 0 1 1 20,0 z"
       sodipodi:ry="10"
       sodipodi:rx="10"
       sodipodi:cy="282.36218"
       sodipodi:cx="90"
       id="use3789"
       style="fill:#008000;fill-opacity:0.49115044000000002;stroke:#000000;stroke-width:0.40000001000000002;stroke-linecap:butt;stroke-linejoin:miter;stroke-miterlimit:4;stroke-opacity:1;stroke-dasharray:none;stroke-dashoffset:0"
       sodipodi:type="arc"
       transform="translate(48,96)" />
    <path
       inkscape:tile-y0="272.36218"
       inkscape:tile-x0="80"
       d="m 100,282.36218 a 10,10 0 1 1 -20,0 10,10 0 1 1 20,0 z"
       sodipodi:ry="10"
       sodipodi:rx="10"
       sodipodi:cy="282.36218"
       sodipodi:cx="90"
       id="use3791"
       style="fill:#008000;fill-opacity:0.49115044000000002;stroke:#000000;stroke-width:0.40000001000000002;stroke-linecap:butt;stroke-linejoin:miter;stroke-miterlimit:4;stroke-opacity:1;stroke-dasharray:none;stroke-dashoffset:0"
       sodipodi:type="arc"
       transform="translate(48,120)" />
    <path
       inkscape:tile-y0="272.36218"
       inkscape:tile-x0="80"
       d="m 100,282.36218 a 10,10 0 1 1 -20,0 10,10 0 1 1 20,0 z"
       sodipodi:ry="10"
       sodipodi:rx="10"
       sodipodi:cy="282.36218"
       sodipodi:cx="90"
       id="use3793"
       style="fill:#800080;fill-opacity:0.49115044000000002;stroke:#000000;stroke-width:0.40000001000000002;stroke-linecap:butt;stroke-linejoin:miter;stroke-miterlimit:4;stroke-opacity:1;stroke-dasharray:none;stroke-dashoffset:0"
       sodipodi:type="arc"
       transform="translate(72,0)" />
    <path
       inkscape:tile-y0="272.36218"
       inkscape:tile-x0="80"
       d="m 100,282.36218 a 10,10 0 1 1 -20,0 10,10 0 1 1 20,0 z"
       sodipodi:ry="10"
       sodipodi:rx="10"
       sodipodi:cy="282.36218"
       sodipodi:cx="90"
       id="use3795"
       style="fill:#800080;fill-opacity:0.49115044000000002;stroke:#000000;stroke-width:0.40000001000000002;stroke-linecap:butt;stroke-linejoin:miter;stroke-miterlimit:4;stroke-opacity:1;stroke-dasharray:none;stroke-dashoffset:0"
       sodipodi:type="arc"
       transform="translate(72,24)" />
    <path
       inkscape:tile-y0="272.36218"
       inkscape:tile-x0="80"
       d="m 100,282.36218 a 10,10 0 1 1 -20,0 10,10 0 1 1 20,0 z"
       sodipodi:ry="10"
       sodipodi:rx="10"
       sodipodi:cy="282.36218"
       sodipodi:cx="90"
       id="use3797"
       style="fill:#800080;fill-opacity:0.49115044000000002;stroke:#000000;stroke-width:0.40000001000000002;stroke-linecap:butt;stroke-linejoin:miter;stroke-miterlimit:4;stroke-opacity:1;stroke-dasharray:none;stroke-dashoffset:0"
       sodipodi:type="arc"
       transform="translate(72,48)" />
    <path
       inkscape:tile-y0="272.36218"
       inkscape:tile-x0="80"
       d="m 100,282.36218 a 10,10 0 1 1 -20,0 10,10 0 1 1 20,0 z"
       sodipodi:ry="10"
       sodipodi:rx="10"
       sodipodi:cy="282.36218"
       sodipodi:cx="90"
       id="use3799"
       style="fill:#0000ff;fill-opacity:0.49115044000000002;stroke:#000000;stroke-width:0.40000001000000002;stroke-linecap:butt;stroke-linejoin:miter;stroke-miterlimit:4;stroke-opacity:1;stroke-dasharray:none;stroke-dashoffset:0"
       sodipodi:type="arc"
       transform="translate(72,72)" />
    <path
       inkscape:tile-y0="272.36218"
       inkscape:tile-x0="80"
       d="m 100,282.36218 a 10,10 0 1 1 -20,0 10,10 0 1 1 20,0 z"
       sodipodi:ry="10"
       sodipodi:rx="10"
       sodipodi:cy="282.36218"
       sodipodi:cx="90"
       id="use3801"
       style="fill:#0000ff;fill-opacity:0.49115044000000002;stroke:#000000;stroke-width:0.40000001000000002;stroke-linecap:butt;stroke-linejoin:miter;stroke-miterlimit:4;stroke-opacity:1;stroke-dasharray:none;stroke-dashoffset:0"
       sodipodi:type="arc"
       transform="translate(72,96)" />
    <path
       inkscape:tile-y0="272.36218"
       inkscape:tile-x0="80"
       d="m 100,282.36218 a 10,10 0 1 1 -20,0 10,10 0 1 1 20,0 z"
       sodipodi:ry="10"
       sodipodi:rx="10"
       sodipodi:cy="282.36218"
       sodipodi:cx="90"
       id="use3803"
       style="fill:#0000ff;fill-opacity:0.49115044000000002;stroke:#000000;stroke-width:0.40000001000000002;stroke-linecap:butt;stroke-linejoin:miter;stroke-miterlimit:4;stroke-opacity:1;stroke-dasharray:none;stroke-dashoffset:0"
       sodipodi:type="arc"
       transform="translate(72,120)" />
    <path
       inkscape:tile-y0="272.36218"
       inkscape:tile-x0="80"
       d="m 100,282.36218 a 10,10 0 1 1 -20,0 10,10 0 1 1 20,0 z"
       sodipodi:ry="10"
       sodipodi:rx="10"
       sodipodi:cy="282.36218"
       sodipodi:cx="90"
       id="use3805"
       style="fill:#800080;fill-opacity:0.49115044000000002;stroke:#000000;stroke-width:0.40000001000000002;stroke-linecap:butt;stroke-linejoin:miter;stroke-miterlimit:4;stroke-opacity:1;stroke-dasharray:none;stroke-dashoffset:0"
       sodipodi:type="arc"
       transform="translate(96,0)" />
    <path
       inkscape:tile-y0="272.36218"
       inkscape:tile-x0="80"
       d="m 100,282.36218 a 10,10 0 1 1 -20,0 10,10 0 1 1 20,0 z"
       sodipodi:ry="10"
       sodipodi:rx="10"
       sodipodi:cy="282.36218"
       sodipodi:cx="90"
       id="use3807"
       style="fill:#800080;fill-opacity:0.49115044000000002;stroke:#000000;stroke-width:0.40000001000000002;stroke-linecap:butt;stroke-linejoin:miter;stroke-miterlimit:4;stroke-opacity:1;stroke-dasharray:none;stroke-dashoffset:0"
       sodipodi:type="arc"
       transform="translate(96,24)" />
    <path
       inkscape:tile-y0="272.36218"
       inkscape:tile-x0="80"
       d="m 100,282.36218 a 10,10 0 1 1 -20,0 10,10 0 1 1 20,0 z"
       sodipodi:ry="10"
       sodipodi:rx="10"
       sodipodi:cy="282.36218"
       sodipodi:cx="90"
       id="use3809"
       style="fill:#800080;fill-opacity:0.49115044000000002;stroke:#000000;stroke-width:0.40000001000000002;stroke-linecap:butt;stroke-linejoin:miter;stroke-miterlimit:4;stroke-opacity:1;stroke-dasharray:none;stroke-dashoffset:0"
       sodipodi:type="arc"
       transform="translate(96,48)" />
    <path
       inkscape:tile-y0="272.36218"
       inkscape:tile-x0="80"
       d="m 100,282.36218 a 10,10 0 1 1 -20,0 10,10 0 1 1 20,0 z"
       sodipodi:ry="10"
       sodipodi:rx="10"
       sodipodi:cy="282.36218"
       sodipodi:cx="90"
       id="use3811"
       style="fill:#0000ff;fill-opacity:0.49115044000000002;stroke:#000000;stroke-width:0.40000001000000002;stroke-linecap:butt;stroke-linejoin:miter;stroke-miterlimit:4;stroke-opacity:1;stroke-dasharray:none;stroke-dashoffset:0"
       sodipodi:type="arc"
       transform="translate(96,72)" />
    <path
       inkscape:tile-y0="272.36218"
       inkscape:tile-x0="80"
       d="m 100,282.36218 a 10,10 0 1 1 -20,0 10,10 0 1 1 20,0 z"
       sodipodi:ry="10"
       sodipodi:rx="10"
       sodipodi:cy="282.36218"
       sodipodi:cx="90"
       id="use3813"
       style="fill:#0000ff;fill-opacity:0.49115044000000002;stroke:#000000;stroke-width:0.40000001000000002;stroke-linecap:butt;stroke-linejoin:miter;stroke-miterlimit:4;stroke-opacity:1;stroke-dasharray:none;stroke-dashoffset:0"
       sodipodi:type="arc"
       transform="translate(96,96)" />
    <path
       inkscape:tile-y0="272.36218"
       inkscape:tile-x0="80"
       d="m 100,282.36218 a 10,10 0 1 1 -20,0 10,10 0 1 1 20,0 z"
       sodipodi:ry="10"
       sodipodi:rx="10"
       sodipodi:cy="282.36218"
       sodipodi:cx="90"
       id="use3815"
       style="fill:#0000ff;fill-opacity:0.49115044000000002;stroke:#000000;stroke-width:0.40000001000000002;stroke-linecap:butt;stroke-linejoin:miter;stroke-miterlimit:4;stroke-opacity:1;stroke-dasharray:none;stroke-dashoffset:0"
       sodipodi:type="arc"
       transform="translate(96,120)" />
    <path
       inkscape:tile-y0="272.36218"
       inkscape:tile-x0="80"
       d="m 100,282.36218 a 10,10 0 1 1 -20,0 10,10 0 1 1 20,0 z"
       sodipodi:ry="10"
       sodipodi:rx="10"
       sodipodi:cy="282.36218"
       sodipodi:cx="90"
       id="use3817"
       style="fill:#800080;fill-opacity:0.49115044000000002;stroke:#000000;stroke-width:0.40000001000000002;stroke-linecap:butt;stroke-linejoin:miter;stroke-miterlimit:4;stroke-opacity:1;stroke-dasharray:none;stroke-dashoffset:0"
       sodipodi:type="arc"
       transform="translate(120,0)" />
    <path
       inkscape:tile-y0="272.36218"
       inkscape:tile-x0="80"
       d="m 100,282.36218 a 10,10 0 1 1 -20,0 10,10 0 1 1 20,0 z"
       sodipodi:ry="10"
       sodipodi:rx="10"
       sodipodi:cy="282.36218"
       sodipodi:cx="90"
       id="use3819"
       style="fill:#800080;fill-opacity:0.49115044000000002;stroke:#000000;stroke-width:0.40000001000000002;stroke-linecap:butt;stroke-linejoin:miter;stroke-miterlimit:4;stroke-opacity:1;stroke-dasharray:none;stroke-dashoffset:0"
       sodipodi:type="arc"
       transform="translate(120,24)" />
    <path
       inkscape:tile-y0="272.36218"
       inkscape:tile-x0="80"
       d="m 100,282.36218 a 10,10 0 1 1 -20,0 10,10 0 1 1 20,0 z"
       sodipodi:ry="10"
       sodipodi:rx="10"
       sodipodi:cy="282.36218"
       sodipodi:cx="90"
       id="use3821"
       style="fill:#800080;fill-opacity:0.49115044000000002;stroke:#000000;stroke-width:0.40000001000000002;stroke-linecap:butt;stroke-linejoin:miter;stroke-miterlimit:4;stroke-opacity:1;stroke-dasharray:none;stroke-dashoffset:0"
       sodipodi:type="arc"
       transform="translate(120,48)" />
    <path
       inkscape:tile-y0="272.36218"
       inkscape:tile-x0="80"
       d="m 100,282.36218 a 10,10 0 1 1 -20,0 10,10 0 1 1 20,0 z"
       sodipodi:ry="10"
       sodipodi:rx="10"
       sodipodi:cy="282.36218"
       sodipodi:cx="90"
       id="use3823"
       style="fill:#0000ff;fill-opacity:0.49115044000000002;stroke:#000000;stroke-width:0.40000001000000002;stroke-linecap:butt;stroke-linejoin:miter;stroke-miterlimit:4;stroke-opacity:1;stroke-dasharray:none;stroke-dashoffset:0"
       sodipodi:type="arc"
       transform="translate(120,72)" />
    <path
       inkscape:tile-y0="272.36218"
       inkscape:tile-x0="80"
       d="m 100,282.36218 a 10,10 0 1 1 -20,0 10,10 0 1 1 20,0 z"
       sodipodi:ry="10"
       sodipodi:rx="10"
       sodipodi:cy="282.36218"
       sodipodi:cx="90"
       id="use3825"
       style="fill:#0000ff;fill-opacity:0.49115044000000002;stroke:#000000;stroke-width:0.40000001000000002;stroke-linecap:butt;stroke-linejoin:miter;stroke-miterlimit:4;stroke-opacity:1;stroke-dasharray:none;stroke-dashoffset:0"
       sodipodi:type="arc"
       transform="translate(120,96)" />
    <path
       inkscape:tile-y0="272.36218"
       inkscape:tile-x0="80"
       d="m 100,282.36218 a 10,10 0 1 1 -20,0 10,10 0 1 1 20,0 z"
       sodipodi:ry="10"
       sodipodi:rx="10"
       sodipodi:cy="282.36218"
       sodipodi:cx="90"
       id="use3827"
       style="fill:#0000ff;fill-opacity:0.49115044000000002;stroke:#000000;stroke-width:0.40000001000000002;stroke-linecap:butt;stroke-linejoin:miter;stroke-miterlimit:4;stroke-opacity:1;stroke-dasharray:none;stroke-dashoffset:0"
       sodipodi:type="arc"
       transform="translate(120,120)" />
    <path
       style="fill:none;stroke:#000000;stroke-width:1px;stroke-linecap:butt;stroke-linejoin:miter;stroke-opacity:1;marker-start:url(#Arrow1Mstart);marker-end:url(#Arrow1Mend)"
       d="m 105,402.36218 -15,0 0,-15"
       id="path3920"
       inkscape:connector-curvature="0" />
    <path
       style="fill:none;stroke:#000300;stroke-width:0.40000000000000002;stroke-linecap:butt;stroke-linejoin:miter;stroke-opacity:1;marker-mid:url(#Arrow1Mend);stroke-miterlimit:4;stroke-dasharray:0.80000000000000004, 0.40000000000000002;stroke-dashoffset:0;marker-end:url(#Arrow1Mend);marker-start:url(#Arrow1Mend)"
       d="m 90,354.36218 0,24 0,24 24,0 24,0 0,-25 -24,0 0,-23 24,0"
       id="path4554"
       inkscape:connector-curvature="0" />
    <path
       style="fill:none;stroke:#000000;stroke-width:0.40000000000000002;stroke-linecap:butt;stroke-linejoin:miter;stroke-opacity:1;stroke-miterlimit:4;stroke-dasharray:0.80000000000000004, 0.40000000000000002;stroke-dashoffset:0;marker-start:url(#Arrow1Mend);marker-mid:url(#Arrow1Mend);marker-end:url(#Arrow1Mend)"
       d="m 90,330.36218 0,-24 0,-24 24,49 0,-25 0,-24 24,49 0,-25 0,-24"
       id="path4924"
       inkscape:connector-curvature="0" />
    <path
       style="fill:none;stroke:#000000;stroke-width:0.40000000000000002;stroke-linecap:butt;stroke-linejoin:miter;stroke-opacity:1;stroke-miterlimit:4;stroke-dasharray:0.80000000000000004, 0.40000000000000002;stroke-dashoffset:0;marker-mid:url(#Arrow1Mend);marker-end:url(#Arrow1Mend);marker-start:url(#Arrow1Mend)"
       d="m 162,402.36218 25,0 24,0 -49,-24 25,0 24,0 -49,-24 24,0 25,0"
       id="path6034"
       inkscape:connector-curvature="0" />
    <path
       style="fill:none;stroke:#000000;stroke-width:1px;stroke-linecap:butt;stroke-linejoin:miter;stroke-opacity:1;marker-start:url(#Arrow1Mstart)"
       d="m 139,415.36218 0,9"
       id="path6404"
       inkscape:connector-curvature="0" />
    <path
       style="fill:none;stroke:#000000;stroke-width:1px;stroke-linecap:butt;stroke-linejoin:miter;stroke-opacity:1;marker-start:url(#Arrow1Mstart)"
       d="m 76,353.36218 -9,0"
       id="path6590"
       inkscape:connector-curvature="0" />
    <path
       style="fill:none;stroke:#000000;stroke-width:0.4;stroke-linecap:butt;stroke-linejoin:miter;stroke-opacity:1;stroke-miterlimit:4;stroke-dasharray:0.8,0.4;stroke-dashoffset:0;marker-start:url(#Arrow1Mend);marker-mid:url(#Arrow1Mend);marker-end:url(#Arrow1Mend)"
       d="m 162,330.36218 0,-24 0,-25 24,50 0,-25 0,-24 24,49 0,-24 0,-25"
       id="path6776"
       inkscape:connector-curvature="0" />
    <text
       xml:space="preserve"
       style="font-size:23.53276443px;font-style:normal;font-weight:normal;line-height:125%;letter-spacing:0px;word-spacing:0px;fill:#000000;fill-opacity:1;stroke:none;font-family:Sans"
       x="61.559109"
       y="644.18292"
       id="text8066"
       sodipodi:linespacing="125%"
       transform="scale(1.5326546,0.65246273)"><tspan
         sodipodi:role="line"
         id="tspan8068"
         x="61.559109"
         y="644.18292">i</tspan></text>
    <text
       xml:space="preserve"
       style="font-size:15.52053356px;font-style:normal;font-weight:normal;line-height:125%;letter-spacing:0px;word-spacing:0px;fill:#000000;fill-opacity:1;stroke:none;font-family:Sans"
       x="48.951164"
       y="599.00201"
       id="text8070"
       sodipodi:linespacing="125%"
       transform="scale(1.5095451,0.66245123)"><tspan
         sodipodi:role="line"
         id="tspan8072"
         x="48.951164"
         y="599.00201">j</tspan></text>
    <text
       xml:space="preserve"
       style="font-size:14.75360298px;font-style:normal;font-weight:normal;line-height:125%;letter-spacing:0px;word-spacing:0px;fill:#000000;fill-opacity:1;stroke:none;font-family:Sans"
       x="127.29521"
       y="480.33374"
       id="text8074"
       sodipodi:linespacing="125%"
       transform="scale(1.1323508,0.88311855)"><tspan
         sodipodi:role="line"
         id="tspan8076"
         x="127.29521"
         y="480.33374">k</tspan></text>
    <text
       xml:space="preserve"
       style="font-size:13.16498566px;font-style:normal;font-weight:normal;line-height:125%;letter-spacing:0px;word-spacing:0px;fill:#000000;fill-opacity:1;stroke:none;font-family:Sans"
       x="63.974922"
       y="365.62463"
       id="text8078"
       sodipodi:linespacing="125%"
       transform="scale(1.04782,0.95436238)"><tspan
         sodipodi:role="line"
         id="tspan8080"
         x="63.974922"
         y="365.62463">k</tspan></text>
  </g>
</svg>
